<?xml version="1.0" encoding="UTF-8"?><svg id="a" xmlns="http://www.w3.org/2000/svg" viewBox="0 0 1920 1080"><defs><style>.b{fill:#252d41;}.c{fill:#de373a;}</style></defs><g><polygon class="c" points="877.4 498.98 886.97 534.7 834.06 534.7 834.15 539.55 834.06 655.42 834.06 673.62 760.63 673.62 760.63 415.31 834.06 415.31 834.06 498.98 877.4 498.98"/><polygon class="c" points="1025.57 415.31 1025.57 673.95 952.14 673.62 952.14 658.08 952.46 534.7 909.25 534.7 899.67 498.98 952.47 498.98 952.47 415.31 1025.57 415.31"/><path class="c" d="M834.05,320.05c0,40.55-32.87,73.42-73.42,73.42v-73.42h73.42Z"/><path class="c" d="M952.14,393.47c0-40.55,32.87-73.42,73.42-73.42v73.42h-73.42Z"/></g><path class="b" d="M301.66,637.06c88.68-65.3,114.67-87.71,114.67-114.35,0-18.84-17.22-28.26-35.41-28.26-24.36,0-43.21,9.75-57.82,25.01l-26.31-30.54c21.11-24.36,53.28-35.41,83.49-35.41,46.13,0,82.84,25.99,82.84,69.19,0,37.03-30.54,69.19-88.68,110.13h90.31v40.61h-163.08v-36.38Z"/><path class="b" d="M1059.43,395.41c0-18.54,15.45-33.54,33.54-33.54s33.54,15,33.54,33.54-15.01,33.54-33.54,33.54-33.54-15-33.54-33.54Z"/><rect class="b" x="1065.17" y="460.29" width="56.05" height="213.16"/><rect class="b" x="1323.79" y="460.29" width="56.05" height="213.16"/><path class="b" d="M1160.6,460.29h56.05v29.13c15-18.98,41.49-33.98,67.96-33.98v54.72c-3.97-.88-9.27-1.77-15.45-1.77-18.54,0-43.25,10.59-52.52,24.27v140.78h-56.05v-213.16Z"/><path class="b" d="M1318.28,395.41c0-18.54,15.45-33.54,33.54-33.54s33.54,15,33.54,33.54-15.01,33.54-33.54,33.54-33.54-15-33.54-33.54Z"/><path class="b" d="M1563.31,544.58c0-29.57-15.45-39.72-39.28-39.72-22.07,0-39.28,12.36-48.54,25.15v143.43h-56.05v-213.16h56.05v27.8c13.68-16.33,39.72-33.1,74.58-33.1,46.78,0,69.29,26.48,69.29,67.96v150.49h-56.05v-128.87Z"/><path class="b" d="M207.84,546.79c-.12-1.85-.35-3.75-.69-5.69,0-.05,0-.09-.02-.14,0,0,0-.02,0-.03-.06-.33-.12-.66-.19-1-.06-.33-.13-.66-.21-1-.14-.67-.31-1.34-.48-2.02-.07-.3-.15-.58-.23-.87-.2-.72-.41-1.45-.65-2.17-.11-.34-.22-.67-.34-1.01-.08-.23-.16-.46-.24-.69-.64-1.79-1.38-3.58-2.25-5.33-.13-.28-.27-.55-.4-.83-.41-.79-.83-1.58-1.27-2.35-.34-.57-.67-1.14-1.03-1.7-.37-.58-.75-1.16-1.15-1.72-.2-.29-.4-.56-.6-.85-1.22-1.68-2.55-3.3-4.03-4.84-.24-.26-.49-.5-.74-.76-.24-.23-.46-.46-.7-.69-.25-.24-.48-.46-.73-.68-.57-.52-1.17-1.05-1.78-1.54-.29-.25-.57-.47-.86-.69-.29-.24-.58-.45-.88-.68-.59-.44-1.21-.88-1.83-1.29-.32-.22-.63-.42-.96-.62-.32-.22-.64-.41-.97-.6-.65-.41-1.33-.78-2.03-1.16-.28-.15-.56-.3-.85-.44-.59-.31-1.2-.59-1.82-.88-.29-.13-.57-.27-.87-.39-.26-.12-.52-.23-.79-.34-.37-.16-.73-.31-1.11-.44-1.19-.46-2.42-.89-3.69-1.26-.78-.24-1.58-.46-2.39-.66-.87-.22-1.75-.42-2.66-.6-.41-.09-.84-.17-1.26-.24-.03,0-.07-.02-.1-.02-.34-.06-.67-.12-1.02-.17-.62-.11-1.24-.2-1.89-.28-.41-.05-.81-.1-1.22-.14-.05,0-.09-.02-.14-.02-.42-.05-.85-.09-1.27-.12-.91-.08-1.84-.15-2.78-.19-.41-.02-.83-.04-1.25-.04-.71-.03-1.42-.04-2.15-.04-.68,0-1.36,0-2.03,.04-.27,0-.52,0-.78,.02-.32,0-.63,.03-.94,.05-.35,0-.69,.04-1.03,.06-.55,.04-1.09,.09-1.62,.14-.32,.03-.63,.07-.95,.11-.42,.04-.85,.09-1.26,.16-.12,0-.24,.02-.36,.05-.52,.07-1.04,.15-1.55,.24-.08,0-.15,.02-.23,.04-.2,.03-.39,.07-.58,.11-.46,.08-.93,.17-1.38,.27-.75,.16-1.49,.33-2.21,.51-.59,.16-1.19,.32-1.76,.48-.09,.03-.17,.05-.25,.08-.5,.15-1,.3-1.48,.46-.73,.24-1.44,.49-2.14,.77-.55,.21-1.1,.43-1.64,.66-.57,.25-1.13,.49-1.68,.76-.55,.26-1.1,.53-1.63,.81-.54,.28-1.07,.56-1.58,.86,0,0-.02,0-.02,0-.46,.27-.92,.53-1.37,.82-.09,.05-.19,.11-.28,.17-.45,.29-.9,.57-1.33,.87-.48,.33-.96,.66-1.42,1.01-.42,.31-.84,.62-1.24,.94-.45,.36-.9,.72-1.33,1.1-.26,.21-.49,.41-.74,.64-.27,.23-.52,.46-.78,.71-.37,.33-.73,.67-1.09,1.03-.4,.39-.79,.78-1.17,1.19,0,0-.02,.02-.02,.03-.32,.32-.62,.65-.92,.99-.43,.48-.86,.98-1.27,1.48-.36,.42-.69,.85-1.03,1.28-.32,.4-.61,.8-.91,1.21-1.71,2.34-3.2,4.81-4.48,7.33-.15,.29-.29,.58-.43,.87-.04,.08-.07,.15-.11,.23-.31,.64-.6,1.29-.89,1.95-.29,.64-.55,1.28-.81,1.94-.26,.65-.5,1.3-.73,1.96-.24,.66-.45,1.31-.66,1.97-.22,.66-.41,1.31-.59,1.98-.17,.59-.33,1.2-.47,1.79-.02,.06-.03,.12-.04,.17-.15,.59-.29,1.18-.41,1.75-.04,.19-.08,.37-.11,.54-.12,.54-.22,1.08-.32,1.61-.12,.66-.23,1.33-.33,2.02-.75,4.91-1.22,10.59-1.31,17.03-.12,8.66,.81,16.43,2.22,23.04,.07,.46,.15,.93,.23,1.39,.08,.45,.17,.91,.26,1.36,.37,1.82,.81,3.62,1.34,5.38,.12,.39,.24,.77,.37,1.16,.07,.22,.14,.44,.22,.66,.13,.39,.27,.77,.4,1.16,.14,.4,.29,.78,.43,1.17,.47,1.22,.99,2.41,1.54,3.59,.2,.41,.4,.82,.6,1.23,.21,.41,.41,.81,.63,1.22,.42,.81,.88,1.61,1.36,2.4,.25,.43,.49,.83,.72,1.19,0,.02,.03,.04,.04,.06,.29,.45,.58,.9,.89,1.35,.37,.53,.74,1.06,1.13,1.58,.21,.29,.41,.57,.64,.85,.15,.2,.3,.41,.46,.6,.39,.5,.79,.99,1.21,1.47,.27,.33,.53,.64,.82,.95,.23,.27,.46,.52,.71,.78,.47,.52,.96,1.03,1.46,1.52,.3,.31,.6,.6,.91,.89,.31,.3,.62,.59,.94,.88,.63,.57,1.27,1.14,1.95,1.68,.31,.26,.61,.51,.92,.74,.7,.57,1.42,1.12,2.17,1.64,.3,.22,.6,.43,.91,.63,.09,.07,.18,.13,.28,.19,1.06,.72,2.14,1.4,3.27,2.04,.39,.24,.78,.45,1.18,.66,.76,.42,1.53,.83,2.33,1.22,.03,.02,.06,.03,.1,.05,.41,.2,.81,.4,1.22,.57,.41,.2,.84,.39,1.26,.56,.86,.38,1.74,.73,2.63,1.07,.42,.17,.86,.33,1.3,.47,1.42,.5,2.87,.96,4.37,1.36,.26,.08,.52,.15,.79,.22,.45,.12,.91,.24,1.36,.34,.19,.06,.38,.1,.56,.14,.59,.14,1.2,.27,1.8,.39,.04,0,.07,.02,.1,.02,.51,.11,1.03,.21,1.55,.3,.24,.05,.48,.09,.73,.13,.07,0,.14,.03,.21,.04,.54,.09,1.09,.17,1.64,.25,.52,.08,1.05,.15,1.58,.21,.4,.05,.81,.1,1.22,.13,1.76,.19,3.57,.32,5.41,.38,.41,.02,.82,.03,1.23,.04,.59,0,1.19,.02,1.79,.02,.51,0,1.04,0,1.55-.02,.35,0,.68,0,1.02-.03,.29,0,.58-.02,.87-.03,.42-.02,.84-.04,1.26-.07,.48-.02,.97-.06,1.45-.1,3.03-.24,6.12-.64,9.22-1.21,.57-.11,1.15-.22,1.73-.34,.23-.04,.45-.09,.69-.14,1.01-.22,2.03-.44,3.03-.69,.53-.13,1.08-.27,1.61-.41,.53-.14,1.08-.28,1.61-.43,.5-.14,1.01-.29,1.51-.43,2.46-.74,4.9-1.57,7.29-2.5,.52-.21,1.05-.41,1.56-.63,1.75-.71,3.46-1.48,5.12-2.29,.42-.21,.85-.41,1.26-.63,.91-.46,1.81-.94,2.69-1.43,.46-.26,.92-.51,1.37-.78,.59-.35,1.18-.69,1.74-1.05l.71-.44c.34-.22,.67-.43,1-.65,.32-.21,.63-.41,.94-.63,2.8-1.92,5.38-4,7.7-6.23l5.99,8.76s.03,.04,.04,.06l13.58,19.9s0,.02,.02,.03l5.08,7.44c-2.16,1.99-4.46,3.86-6.86,5.64-.02,0-.05,.03-.07,.05-.1,.07-.2,.15-.3,.23-.1,.08-.2,.15-.3,.22-.2,.15-.4,.31-.6,.44-.21,.15-.41,.3-.62,.43-.65,.46-1.32,.93-2,1.37-.02,.02-.04,.03-.07,.05-.58,.39-1.18,.77-1.78,1.15-2.41,1.54-4.91,2.99-7.5,4.35-.64,.35-1.3,.68-1.97,1.01-.15,.09-.3,.16-.45,.23-.56,.29-1.14,.56-1.71,.83-.24,.12-.47,.24-.72,.35-.63,.3-1.26,.59-1.91,.87-.12,.06-.24,.12-.37,.17-.64,.29-1.29,.57-1.95,.84-.25,.11-.5,.22-.76,.32-.57,.25-1.14,.47-1.72,.7-.72,.3-1.45,.57-2.19,.85-.92,.35-1.85,.69-2.79,1.02-.99,.35-1.99,.69-3,1.02-1.84,.6-3.69,1.17-5.58,1.69-.97,.28-1.95,.53-2.92,.79-.94,.25-1.89,.47-2.84,.7-.09,.02-.18,.05-.28,.07-.84,.2-1.69,.39-2.55,.57l-.41,.09c-.63,.14-1.27,.28-1.92,.4-.46,.11-.94,.2-1.4,.29-.85,.16-1.71,.32-2.56,.46-.99,.17-1.98,.34-2.96,.49-.03,0-.05,0-.07,0-1.02,.16-2.04,.3-3.06,.43-1.02,.14-2.04,.27-3.05,.39-.79,.09-1.58,.18-2.37,.25-.64,.07-1.29,.14-1.95,.19-.3,.03-.6,.06-.9,.08-.52,.05-1.05,.09-1.56,.12-.73,.06-1.46,.11-2.2,.15-.15,0-.31,.02-.45,.03-.72,.04-1.44,.08-2.17,.1-.46,.03-.94,.05-1.4,.06-.83,.03-1.65,.05-2.48,.07-1.04,.02-2.06,.03-3.1,.03-64.88,0-113.87-43.69-113.87-112.1,0-61.78,45.45-111.65,110.33-111.65s106.8,47.66,106.8,117.39v12.36H109.43c-1.27-6.36-2.1-13.74-1.99-21.92,.09-6.02,.49-11.36,1.16-16.03h99.24Z"/><path class="b" d="M666.96,546.79c-.12-1.85-.35-3.75-.69-5.69,0-.05,0-.09-.02-.14,0,0,0-.02,0-.03-.06-.33-.12-.66-.19-1-.06-.33-.13-.66-.21-1-.14-.67-.31-1.34-.48-2.02-.07-.3-.15-.58-.23-.87-.2-.72-.41-1.45-.65-2.17-.11-.34-.22-.67-.34-1.01-.08-.23-.16-.46-.24-.69-.64-1.79-1.38-3.58-2.25-5.33-.13-.28-.27-.55-.4-.83-.41-.79-.83-1.58-1.27-2.35-.34-.57-.67-1.14-1.03-1.7-.37-.58-.75-1.16-1.15-1.72-.2-.29-.4-.56-.6-.85-1.22-1.68-2.55-3.3-4.03-4.84-.24-.26-.49-.5-.74-.76-.24-.23-.46-.46-.7-.69-.25-.24-.48-.46-.73-.68-.57-.52-1.17-1.05-1.78-1.54-.29-.25-.57-.47-.86-.69-.29-.24-.58-.45-.88-.68-.59-.44-1.21-.88-1.83-1.29-.32-.22-.63-.42-.96-.62-.32-.22-.64-.41-.97-.6-.65-.41-1.33-.78-2.03-1.16-.28-.15-.56-.3-.85-.44-.59-.31-1.2-.59-1.82-.88-.29-.13-.57-.27-.87-.39-.26-.12-.52-.23-.79-.34-.37-.16-.73-.31-1.11-.44-1.19-.46-2.42-.89-3.69-1.26-.78-.24-1.58-.46-2.39-.66-.87-.22-1.75-.42-2.66-.6-.41-.09-.84-.17-1.26-.24-.03,0-.07-.02-.1-.02-.34-.06-.67-.12-1.02-.17-.62-.11-1.24-.2-1.89-.28-.41-.05-.81-.1-1.22-.14-.05,0-.09-.02-.14-.02-.42-.05-.85-.09-1.27-.12-.91-.08-1.84-.15-2.78-.19-.41-.02-.83-.04-1.25-.04-.71-.03-1.42-.04-2.15-.04-.68,0-1.36,0-2.03,.04-.27,0-.52,0-.78,.02-.32,0-.63,.03-.94,.05-.35,0-.69,.04-1.03,.06-.55,.04-1.09,.09-1.62,.14-.32,.03-.63,.07-.95,.11-.42,.04-.85,.09-1.26,.16-.12,0-.24,.02-.36,.05-.52,.07-1.04,.15-1.55,.24-.08,0-.15,.02-.23,.04-.2,.03-.39,.07-.58,.11-.46,.08-.93,.17-1.38,.27-.75,.16-1.49,.33-2.21,.51-.59,.16-1.19,.32-1.76,.48-.09,.03-.17,.05-.25,.08-.5,.15-1,.3-1.48,.46-.73,.24-1.44,.49-2.14,.77-.55,.21-1.1,.43-1.64,.66-.57,.25-1.13,.49-1.68,.76-.55,.26-1.1,.53-1.63,.81-.54,.28-1.07,.56-1.58,.86,0,0-.02,0-.02,0-.46,.27-.92,.53-1.37,.82-.09,.05-.19,.11-.28,.17-.45,.29-.9,.57-1.33,.87-.48,.33-.96,.66-1.42,1.01-.42,.31-.84,.62-1.24,.94-.45,.36-.9,.72-1.33,1.1-.26,.21-.49,.41-.74,.64-.27,.23-.52,.46-.78,.71-.37,.33-.73,.67-1.09,1.03-.4,.39-.79,.78-1.17,1.19,0,0-.02,.02-.02,.03-.32,.32-.62,.65-.92,.99-.43,.48-.86,.98-1.27,1.48-.36,.42-.69,.85-1.03,1.28-.32,.4-.61,.8-.91,1.21-1.71,2.34-3.2,4.81-4.48,7.33-.15,.29-.29,.58-.43,.87-.04,.08-.07,.15-.11,.23-.31,.64-.6,1.29-.89,1.95-.29,.64-.55,1.28-.81,1.94-.26,.65-.5,1.3-.73,1.96-.24,.66-.45,1.31-.66,1.97-.22,.66-.41,1.31-.59,1.98-.17,.59-.33,1.2-.47,1.79-.02,.06-.03,.12-.04,.17-.15,.59-.29,1.18-.41,1.75-.04,.19-.08,.37-.11,.54-.12,.54-.22,1.08-.32,1.61-.12,.66-.23,1.33-.33,2.02-.75,4.91-1.22,10.59-1.31,17.03-.12,8.66,.81,16.43,2.22,23.04,.07,.46,.15,.93,.23,1.39,.08,.45,.17,.91,.26,1.36,.37,1.82,.81,3.62,1.34,5.38,.12,.39,.24,.77,.37,1.16,.07,.22,.14,.44,.22,.66,.13,.39,.27,.77,.4,1.16,.14,.4,.29,.78,.43,1.17,.47,1.22,.99,2.41,1.54,3.59,.2,.41,.4,.82,.6,1.23,.21,.41,.41,.81,.63,1.22,.42,.81,.88,1.61,1.36,2.4,.25,.43,.49,.83,.72,1.19,0,.02,.03,.04,.04,.06,.29,.45,.58,.9,.89,1.35,.37,.53,.74,1.06,1.13,1.58,.21,.29,.41,.57,.64,.85,.15,.2,.3,.41,.46,.6,.39,.5,.79,.99,1.21,1.47,.27,.33,.53,.64,.82,.95,.23,.27,.46,.52,.71,.78,.47,.52,.96,1.03,1.46,1.52,.3,.31,.6,.6,.91,.89,.31,.3,.62,.59,.94,.88,.63,.57,1.27,1.14,1.95,1.68,.31,.26,.61,.51,.92,.74,.7,.57,1.42,1.12,2.17,1.64,.3,.22,.6,.43,.91,.63,.09,.07,.18,.13,.28,.19,1.06,.72,2.14,1.4,3.27,2.04,.39,.24,.78,.45,1.18,.66,.76,.42,1.53,.83,2.33,1.22,.03,.02,.06,.03,.1,.05,.41,.2,.81,.4,1.22,.57,.41,.2,.84,.39,1.26,.56,.86,.38,1.74,.73,2.63,1.07,.42,.17,.86,.33,1.3,.47,1.42,.5,2.87,.96,4.37,1.36,.26,.08,.52,.15,.79,.22,.45,.12,.91,.24,1.36,.34,.19,.06,.38,.1,.56,.14,.59,.14,1.2,.27,1.8,.39,.04,0,.07,.02,.1,.02,.51,.11,1.03,.21,1.55,.3,.24,.05,.48,.09,.73,.13,.07,0,.14,.03,.21,.04,.54,.09,1.09,.17,1.64,.25,.52,.08,1.05,.15,1.58,.21,.4,.05,.81,.1,1.22,.13,1.76,.19,3.57,.32,5.41,.38,.41,.02,.82,.03,1.23,.04,.59,0,1.19,.02,1.79,.02,.51,0,1.04,0,1.55-.02,.35,0,.68,0,1.02-.03,.29,0,.58-.02,.87-.03,.42-.02,.84-.04,1.26-.07,.48-.02,.97-.06,1.45-.1,3.03-.24,6.12-.64,9.22-1.21,.57-.11,1.15-.22,1.73-.34,.23-.04,.45-.09,.69-.14,1.01-.22,2.03-.44,3.03-.69,.53-.13,1.08-.27,1.61-.41,.53-.14,1.08-.28,1.61-.43,.5-.14,1.01-.29,1.51-.43,2.46-.74,4.9-1.57,7.29-2.5,.52-.21,1.05-.41,1.56-.63,1.75-.71,3.46-1.48,5.12-2.29,.42-.21,.85-.41,1.26-.63,.91-.46,1.81-.94,2.69-1.43,.46-.26,.92-.51,1.37-.78,.59-.35,1.18-.69,1.74-1.05l.71-.44c.34-.22,.67-.43,1-.65,.32-.21,.63-.41,.94-.63,2.8-1.92,5.38-4,7.7-6.23l5.99,8.76s.03,.04,.04,.06l13.58,19.9s0,.02,.02,.03l5.08,7.44c-2.16,1.99-4.46,3.86-6.86,5.64-.02,0-.05,.03-.07,.05-.1,.07-.2,.15-.3,.23-.1,.08-.2,.15-.3,.22-.2,.15-.4,.31-.6,.44-.21,.15-.41,.3-.62,.43-.65,.46-1.32,.93-2,1.37-.02,.02-.04,.03-.07,.05-.58,.39-1.18,.77-1.78,1.15-2.41,1.54-4.91,2.99-7.5,4.35-.64,.35-1.3,.68-1.97,1.01-.15,.09-.3,.16-.45,.23-.56,.29-1.14,.56-1.71,.83-.24,.12-.47,.24-.72,.35-.63,.3-1.26,.59-1.91,.87-.12,.06-.24,.12-.37,.17-.64,.29-1.29,.57-1.95,.84-.25,.11-.5,.22-.76,.32-.57,.25-1.14,.47-1.72,.7-.72,.3-1.45,.57-2.19,.85-.92,.35-1.85,.69-2.79,1.02-.99,.35-1.99,.69-3,1.02-1.84,.6-3.69,1.17-5.58,1.69-.97,.28-1.95,.53-2.92,.79-.94,.25-1.89,.47-2.84,.7-.09,.02-.18,.05-.28,.07-.84,.2-1.69,.39-2.55,.57l-.41,.09c-.63,.14-1.27,.28-1.92,.4-.46,.11-.94,.2-1.4,.29-.85,.16-1.71,.32-2.56,.46-.99,.17-1.98,.34-2.96,.49-.03,0-.05,0-.07,0-1.02,.16-2.04,.3-3.06,.43-1.02,.14-2.04,.27-3.05,.39-.79,.09-1.58,.18-2.37,.25-.64,.07-1.29,.14-1.95,.19-.3,.03-.6,.06-.9,.08-.52,.05-1.05,.09-1.56,.12-.73,.06-1.46,.11-2.2,.15-.15,0-.31,.02-.45,.03-.72,.04-1.44,.08-2.17,.1-.46,.03-.94,.05-1.4,.06-.83,.03-1.65,.05-2.48,.07-1.04,.02-2.06,.03-3.1,.03-64.88,0-113.87-43.69-113.87-112.1,0-61.78,45.45-111.65,110.33-111.65s106.8,47.66,106.8,117.39v12.36h-152.7c-1.27-6.36-2.1-13.74-1.99-21.92,.09-6.02,.49-11.36,1.16-16.03h99.24Z"/><path class="b" d="M1875,460.29v198.6c0,81.2-62.67,101.06-115.19,101.06-1.15,0-2.28,0-3.41-.03-1.12,0-2.21-.04-3.31-.07-.11,0-.22,0-.32,0-.94-.03-1.87-.06-2.79-.11-.29,0-.56-.02-.84-.04-.74-.03-1.48-.08-2.21-.12-.45-.03-.91-.06-1.36-.1-.6-.03-1.21-.08-1.8-.13-.35-.02-.69-.05-1.03-.08-.71-.06-1.42-.12-2.12-.2-.36-.03-.71-.06-1.06-.1-.64-.06-1.27-.13-1.9-.21-.41-.05-.82-.09-1.22-.15-.55-.06-1.1-.13-1.64-.22-.5-.06-1-.13-1.49-.2-.26-.03-.51-.07-.77-.12-.73-.1-1.45-.22-2.17-.33-2.8-.46-5.54-1-8.24-1.61-.9-.21-1.79-.42-2.68-.64-.87-.22-1.74-.44-2.6-.68,0,0-.03,0-.06,0-.87-.25-1.74-.49-2.61-.75-.87-.26-1.73-.52-2.6-.8-.86-.28-1.71-.56-2.57-.86-.64-.22-1.27-.45-1.92-.68-1.26-.46-2.53-.96-3.77-1.46-.63-.26-1.25-.51-1.88-.78-.84-.36-1.66-.72-2.49-1.1-.81-.38-1.62-.75-2.43-1.14,0,0-.02-.02-.03-.02-.82-.4-1.64-.81-2.45-1.22-.07-.03-.13-.07-.2-.1-.74-.39-1.49-.78-2.23-1.19-.8-.43-1.61-.88-2.41-1.34-.65-.38-1.3-.75-1.96-1.15-.16-.09-.32-.19-.48-.29-.78-.47-1.56-.96-2.34-1.45-.9-.57-1.8-1.17-2.7-1.77-.67-.45-1.35-.92-2.03-1.39-.71-.49-1.41-1-2.12-1.51-.85-.62-1.71-1.26-2.56-1.92-.07-.05-.14-.11-.2-.16-2.28-1.75-4.55-3.61-6.82-5.57l4.56-7.36,14.2-22.9,6.4-10.34c2.67,2.94,5.45,5.6,8.37,8.01h0c.76,.63,1.53,1.24,2.32,1.83,.36,.29,.72,.55,1.09,.81,.2,.16,.4,.3,.6,.43,.36,.27,.71,.52,1.08,.77,.26,.18,.51,.36,.78,.53,2.21,1.49,4.49,2.85,6.84,4.09,.41,.22,.83,.43,1.25,.64,.44,.23,.9,.44,1.35,.66,.62,.31,1.24,.59,1.87,.87,.48,.22,.98,.43,1.47,.64,.26,.11,.51,.22,.78,.33,.17,.07,.34,.14,.5,.2,.45,.19,.91,.37,1.36,.54,1.47,.56,2.97,1.09,4.49,1.56,.54,.18,1.1,.35,1.65,.5,.13,.04,.26,.08,.39,.12,.68,.2,1.36,.39,2.05,.56,.73,.2,1.47,.39,2.21,.55,1.6,.39,3.23,.72,4.88,1.02,.63,.12,1.26,.23,1.9,.34,.02,0,.04,0,.06,0,.5,.08,1.02,.16,1.53,.23,.44,.07,.89,.13,1.33,.19,1.98,.27,3.99,.48,6.03,.64,.66,.06,1.32,.1,1.99,.15h.11c.67,.05,1.34,.08,2.03,.11,.5,.03,1.02,.05,1.53,.07,.48,0,.98,.03,1.47,.04,.4,0,.79,.02,1.19,.02,.7,0,1.41,.02,2.12,.02,26.92,0,58.7-11.91,58.7-53.84v-21.63c-2.62,3.31-5.39,6.4-8.3,9.27l-.06,.06c-.56,.55-1.14,1.1-1.71,1.63-.55,.52-1.12,1.04-1.69,1.54-.7,.63-1.4,1.23-2.12,1.84-.54,.45-1.1,.91-1.65,1.34,0,.02-.02,.02-.03,.03-.62,.49-1.24,.98-1.87,1.44-.72,.55-1.45,1.09-2.19,1.6-.53,.38-1.07,.75-1.6,1.11-.13,.09-.26,.18-.39,.25-.44,.31-.88,.59-1.32,.87-.24,.16-.47,.31-.72,.45-.41,.26-.82,.5-1.22,.75-.82,.49-1.64,.97-2.47,1.42-1.24,.7-2.51,1.35-3.79,1.98-.19,.1-.39,.19-.57,.28-.63,.3-1.26,.59-1.91,.88-.66,.3-1.33,.58-2.01,.86-.09,.04-.17,.08-.26,.11-.67,.28-1.34,.54-2.02,.79-.02,0-.03,.02-.05,.02-.54,.21-1.09,.41-1.64,.59-.96,.35-1.92,.66-2.88,.96-.67,.21-1.34,.41-2.02,.59-.17,.05-.34,.09-.5,.13-.44,.13-.9,.25-1.35,.36-.3,.09-.6,.16-.91,.23-.57,.14-1.15,.28-1.72,.4-.08,.02-.16,.04-.25,.05-.74,.17-1.49,.31-2.24,.44-.73,.14-1.46,.26-2.19,.38l-.24,.03c-.72,.11-1.44,.21-2.16,.3-.09,0-.18,.02-.28,.03-.72,.09-1.45,.17-2.18,.23h-.02c-.79,.08-1.58,.14-2.38,.18-.71,.05-1.43,.08-2.15,.1-.89,.04-1.79,.05-2.69,.05-53.41,0-94.01-37.51-94.01-108.57s40.17-108.56,94.01-108.56c.71,0,1.42,0,2.13,.03,.4,0,.78,.02,1.18,.04,.47,0,.94,.03,1.39,.06,.08,0,.16,0,.25,0,.6,.04,1.2,.08,1.78,.12,.53,.04,1.06,.09,1.59,.15,.07,0,.14,0,.22,.02,.52,.05,1.05,.1,1.57,.17,.56,.06,1.12,.14,1.66,.22,0,0,.02,0,.03,0,.57,.08,1.14,.16,1.7,.26,.33,.05,.64,.1,.97,.16,2.22,.39,4.44,.86,6.61,1.43,.65,.17,1.3,.35,1.96,.53,.59,.17,1.19,.35,1.77,.54,.39,.11,.76,.23,1.14,.37,.43,.14,.87,.29,1.3,.43,.22,.08,.44,.16,.66,.25,.45,.15,.91,.32,1.36,.5,.22,.07,.42,.16,.64,.24,.48,.19,.96,.38,1.43,.58,.24,.09,.47,.2,.71,.3,.63,.27,1.25,.54,1.88,.83,.7,.32,1.4,.64,2.09,.99,.03,0,.06,.03,.09,.04,.66,.34,1.32,.67,1.98,1.02,.91,.48,1.82,.99,2.72,1.51,.38,.21,.75,.42,1.12,.66,.59,.35,1.18,.71,1.76,1.09,.32,.2,.64,.41,.96,.62,.33,.2,.64,.41,.96,.63,.33,.22,.66,.44,.99,.68,.2,.13,.4,.27,.59,.41,.46,.33,.94,.67,1.39,1.02,.54,.4,1.08,.8,1.61,1.22,1.16,.9,2.29,1.84,3.41,2.81,.54,.47,1.09,.95,1.62,1.44,.54,.48,1.08,.98,1.6,1.48,.47,.44,.94,.9,1.39,1.35l.31,.31c.45,.45,.91,.92,1.35,1.39l.08,.08v41.15c-.33-.34-.66-.65-1-.96-.34-.33-.68-.64-1.04-.94-.7-.63-1.42-1.23-2.17-1.82-.38-.31-.75-.59-1.13-.87-.3-.24-.6-.46-.91-.67-.56-.41-1.13-.8-1.7-1.19l-.95-.62c-1.27-.82-2.58-1.6-3.92-2.33-.38-.22-.76-.41-1.16-.61-.43-.24-.88-.45-1.32-.67-.58-.29-1.18-.57-1.77-.84-.76-.35-1.52-.68-2.29-.99-.42-.19-.86-.36-1.29-.51-.04-.02-.09-.04-.13-.06-.4-.15-.79-.3-1.19-.43-.63-.24-1.27-.45-1.92-.66-.37-.12-.72-.24-1.09-.35-1.19-.38-2.37-.7-3.58-1-.38-.09-.75-.18-1.13-.27-.34-.08-.68-.16-1.02-.22-.02,0-.04-.02-.07-.02-.46-.1-.93-.19-1.39-.28-1.15-.21-2.29-.39-3.43-.52-.49-.07-.98-.13-1.46-.17-.52-.06-1.06-.1-1.58-.14-.11,0-.23,0-.35-.02-.41-.03-.84-.05-1.26-.06-.69-.04-1.37-.05-2.06-.05-31.77,0-53.84,22.06-53.84,58.69s22.07,58.7,53.84,58.7c.58,0,1.17,0,1.75-.03,.99-.04,1.99-.1,2.98-.2,.67-.06,1.35-.14,2.03-.23,.49-.06,.99-.13,1.47-.22,.67-.09,1.33-.21,2-.34,.35-.07,.69-.14,1.03-.22,.77-.15,1.53-.33,2.29-.52,.56-.14,1.13-.29,1.68-.44,.52-.14,1.05-.3,1.56-.45,1.5-.46,2.98-.98,4.45-1.54,.4-.16,.79-.32,1.19-.47l.44-.18c.43-.19,.86-.37,1.28-.55,.08-.04,.16-.07,.23-.1,.42-.19,.84-.39,1.25-.58,.46-.21,.91-.43,1.35-.65,.35-.17,.69-.35,1.03-.52,.64-.33,1.27-.67,1.89-1.02,.41-.23,.83-.46,1.23-.71,6.44-3.79,12.02-8.57,15.96-13.86,0,0,.02-.03,.02-.04,.36-.46,.68-.93,1-1.39v-137.69h56.49Z"/></svg>