<svg xmlns="http://www.w3.org/2000/svg" xmlns:xlink="http://www.w3.org/1999/xlink" width="135" height="135" viewBox="0 0 135 135">
  <defs>
    <filter id="Rectangle_72" x="0" y="0" width="135" height="135" filterUnits="userSpaceOnUse">
      <feOffset dy="2" input="SourceAlpha"/>
      <feGaussianBlur stdDeviation="5" result="blur"/>
      <feFlood flood-color="#75c2e1" flood-opacity="0.2"/>
      <feComposite operator="in" in2="blur"/>
      <feComposite in="SourceGraphic"/>
    </filter>
  </defs>
  <g id="Group_16" data-name="Group 16" transform="translate(-3687 -3370)">
    <g transform="matrix(1, 0, 0, 1, 3687, 3370)" filter="url(#Rectangle_72)">
      <path id="Rectangle_72-2" data-name="Rectangle 72" d="M0,0H105a0,0,0,0,1,0,0V54a51,51,0,0,1-51,51H0a0,0,0,0,1,0,0V0A0,0,0,0,1,0,0Z" transform="translate(15 13)" fill="#fff"/>
    </g>
    <g id="Layer_2" data-name="Layer 2" transform="translate(3710.382 3397.328)">
      <g id="Layer_1" data-name="Layer 1">
        <path id="Path_36" data-name="Path 36" d="M77.261,26.729H5.316C2.389,26.729,0,24.693,0,22.178V4.551C0,2.037,2.389,0,5.316,0H77.261c2.933,0,5.316,2.037,5.316,4.551V22.178C82.577,24.693,80.194,26.729,77.261,26.729Z" fill="#f2f2f2"/>
        <path id="Path_37" data-name="Path 37" d="M77.261,91.729H5.316C2.383,91.729,0,89.693,0,87.178V69.551C0,67.037,2.389,65,5.316,65H77.261c2.933,0,5.316,2.037,5.316,4.551V87.178C82.577,89.693,80.194,91.729,77.261,91.729Z" transform="translate(0 -26.175)" fill="#f2f2f2"/>
        <path id="Path_38" data-name="Path 38" d="M36.261,10a.7.7,0,0,0-.7.7v2.216a13.141,13.141,0,0,0-2.825,1.195L31.16,12.545a.7.7,0,0,0-1,0L26.077,16.63a.7.7,0,0,0,0,1l1.571,1.565a13.183,13.183,0,0,0-1.195,2.831h-2.2a.7.7,0,0,0-.7.7v5.788a.7.7,0,0,0,.7.7h2.216a13.015,13.015,0,0,0,1.195,2.825l-1.571,1.571a.7.7,0,0,0,0,1l4.068,4.056a.7.7,0,0,0,1,0L32.731,37.1a13.14,13.14,0,0,0,2.825,1.195V40.51a.7.7,0,0,0,.7.7h5.776a.7.7,0,0,0,.7-.7V38.288a13.183,13.183,0,0,0,2.831-1.195l1.541,1.577a.7.7,0,0,0,1,0L52.2,34.585a.7.7,0,0,0,0-1l-1.571-1.571a13.141,13.141,0,0,0,1.195-2.825h2.222a.7.7,0,0,0,.7-.675V22.723a.7.7,0,0,0-.7-.7H51.826a13.182,13.182,0,0,0-1.195-2.831L52.2,17.622a.7.7,0,0,0,0-1l-4.086-4.086a.7.7,0,0,0-1,0l-1.565,1.571a13.182,13.182,0,0,0-2.831-1.195v-2.2A.7.7,0,0,0,42.037,10Zm9.061,5.591a.7.7,0,0,0,.872-.1l1.457-1.451L50.7,17.12l-1.451,1.457a.7.7,0,0,0-.1.872,11.785,11.785,0,0,1,1.428,3.435.7.7,0,0,0,.687.544h2.055v4.366H51.295a.7.7,0,0,0-.687.544,11.785,11.785,0,0,1-1.428,3.435.7.7,0,0,0,.1.872L50.7,34.1l-3.082,3.082-1.457-1.457a.723.723,0,0,0-.836-.1,11.635,11.635,0,0,1-3.434,1.434.7.7,0,0,0-.544.687V39.8H36.959V37.745a.7.7,0,0,0-.544-.687,13.052,13.052,0,0,1-1.577-.5c-.287-.119-.6-.245-.86-.382s-.675-.352-1-.55a.711.711,0,0,0-.872.1l-.185.191-.6.6-.669.669L27.576,34.1l1.457-1.457a.723.723,0,0,0,.1-.872c-.06-.09-.113-.179-.167-.275s-.209-.37-.3-.555c-.167-.334-.323-.675-.46-1.021-.084-.2-.155-.412-.227-.627-.1-.317-.2-.633-.275-.956a.7.7,0,0,0-.687-.544H24.96V23.427h2.055a.7.7,0,0,0,.687-.544q.078-.329.179-.663c.078-.257.167-.514.263-.765a11.194,11.194,0,0,1,.992-2.007.723.723,0,0,0-.1-.872L27.576,17.12l.191-.191.5-.5.818-.818.508-.508.83-.83.239-.239.108.1.669.675.669.663h0a.7.7,0,0,0,.872.1c.317-.191.639-.376.974-.538.227-.113.46-.221.7-.317a11.241,11.241,0,0,1,1.792-.6.7.7,0,0,0,.52-.651V11.422h4.366v2.055a.7.7,0,0,0,.55.7,11.785,11.785,0,0,1,3.446,1.41Z" transform="translate(-9.483 -4.027)" fill="#f95368" stroke="#f95368" stroke-width="1"/>
        <path id="Path_39" data-name="Path 39" d="M41.5,24.195a8.32,8.32,0,0,0-.759.4,7.6,7.6,0,0,0-2.318,2.2,5.757,5.757,0,0,0-.329.514,7.532,7.532,0,0,0-.454.962c-.09.239-.173.478-.245.723a7.437,7.437,0,0,0-.281,1.756q0,.152,0,.3v.6a7.46,7.46,0,0,0,.364,1.792c.06.185.131.37.209.555a7.608,7.608,0,0,0,.478.932,7.855,7.855,0,0,0,.472.693,7.323,7.323,0,0,0,.794.878c.167.161.346.317.532.466a7.216,7.216,0,0,0,.872.6,8.105,8.105,0,0,0,.818.418,7.484,7.484,0,0,0,2.987.6h0a7.532,7.532,0,0,0,0-15.058h0a7.514,7.514,0,0,0-3.142.675Zm9.228,6.857a6.122,6.122,0,1,1-6.116-6.116,6.122,6.122,0,0,1,6.116,6.116Z" transform="translate(-14.948 -9.471)" fill="#7fc9d6"/>
        <path id="Path_40" data-name="Path 40" d="M91.832,75.833a.717.717,0,0,0-.43-.329l-1.422-.37a9.922,9.922,0,0,0-.293-1.989L90.96,72.4a.711.711,0,0,0,.251-.968L89.091,67.8a.681.681,0,0,0-.43-.323.693.693,0,0,0-.532.072l-1.272.747A9.718,9.718,0,0,0,85.274,67.1l.382-1.422a.693.693,0,0,0-.072-.532.717.717,0,0,0-.43-.329l-4.068-1.075a.7.7,0,0,0-.538.072.717.717,0,0,0-.329.43l-.37,1.434a9.5,9.5,0,0,0-1.965.275l-.741-1.284a.7.7,0,0,0-.962-.251l-3.638,2.12a.711.711,0,0,0-.257.968l.747,1.272a9.718,9.718,0,0,0-1.195,1.583l-1.422-.376a.717.717,0,0,0-.86.508l-1.075,4.068a.7.7,0,0,0,.5.86l1.422.376a9.5,9.5,0,0,0,.275,1.965l-1.272.747a.687.687,0,0,0-.329.43.723.723,0,0,0,.078.532L71.285,83.1a.687.687,0,0,0,.43.329.717.717,0,0,0,.532-.072l1.272-.747A9.36,9.36,0,0,0,75.1,83.807l-.346,1.428a.717.717,0,0,0,.508.866L79.3,87.182a.6.6,0,0,0,.179,0,.7.7,0,0,0,.681-.526l.376-1.422a9.922,9.922,0,0,0,1.983-.269l.747,1.272a.7.7,0,0,0,.962.251l3.632-2.126a.7.7,0,0,0,.329-.43.693.693,0,0,0-.072-.532l-.747-1.272a9.359,9.359,0,0,0,1.195-1.583l1.428.37a.693.693,0,0,0,.532-.072.717.717,0,0,0,.329-.43l1.063-4.068A.7.7,0,0,0,91.832,75.833Zm-2.18,3.584-1.26-.329a.711.711,0,0,0-.806.346,8.063,8.063,0,0,1-1.439,1.947l-.155.161h0a.7.7,0,0,0-.155.8v.066l.663,1.129-1.021.6-.066.042-1.3.735-.663-1.129a.7.7,0,0,0-.812-.317,8.362,8.362,0,0,1-2.628.364.711.711,0,0,0-.7.526l-.269,1.033-.06.239-.269-.072-2.437-.645.329-1.26h0a.717.717,0,0,0-.352-.788l-.084-.042a7.813,7.813,0,0,1-.848-.538c-.233-.167-.46-.346-.675-.532a6.776,6.776,0,0,1-.508-.49.711.711,0,0,0-.866-.125l-.6.346-.538.317-.1-.161-.508-.866-.358-.693-.418-.711,1.135-.663a.7.7,0,0,0,.317-.812,8.363,8.363,0,0,1-.364-2.628.7.7,0,0,0-.526-.7l-1.195-.311h-.072l.155-.6.555-2.114,1.26.329a.7.7,0,0,0,.7-.221.454.454,0,0,0,.072-.113c.036-.054.066-.113.1-.173a7.533,7.533,0,0,1,.663-1.009,7.375,7.375,0,0,1,.6-.7l.155-.155c.036-.036.066-.072.1-.1a.7.7,0,0,0,.119-.866l-.657-1.129,2.389-1.416.657,1.129a.711.711,0,0,0,.818.352,8.177,8.177,0,0,1,2.628-.364.711.711,0,0,0,.7-.526l.329-1.266,2.706.711-.329,1.26a.7.7,0,0,0,.358.782,8.285,8.285,0,0,1,2.114,1.607.7.7,0,0,0,.866.119l1.129-.657,1.41,2.389-1.129.657a.711.711,0,0,0-.317.818,8.362,8.362,0,0,1,.364,2.628.711.711,0,0,0,.526.7l1.266.329Z" transform="translate(-27.568 -25.66)"/>
        <path id="Path_41" data-name="Path 41" d="M78.956,77.587a4.454,4.454,0,0,0-.155.5.507.507,0,0,0,0,.1,5.651,5.651,0,0,0-.054,2.449h0a.837.837,0,0,0,.036.167,5.507,5.507,0,0,0,.627,1.577,5.633,5.633,0,0,0,3.464,2.628H83l.185.042a5.6,5.6,0,0,0,2.455-.048,5.023,5.023,0,0,0,.6-.179,5.764,5.764,0,0,0,2.1-1.338,5.674,5.674,0,0,0-2.61-9.473A5.585,5.585,0,0,0,84.3,73.83a5.68,5.68,0,0,0-5.34,3.739Zm5.34-2.329a4.384,4.384,0,0,1,1.075.137,4.271,4.271,0,0,1-1.081,8.4,4.122,4.122,0,0,1-1.075-.143A4.265,4.265,0,0,1,84.3,75.287Z" transform="translate(-31.667 -29.731)"/>
        <circle id="Ellipse_16" data-name="Ellipse 16" cx="7.466" cy="7.466" r="7.466" transform="translate(21.951 14.037)" fill="#7fc9d6"/>
      </g>
    </g>
  </g>
</svg>
